# xmcd
#
# Track frame offsets:
#	150
#	13137
#	31810
#	53849
#	71238
#	91239
#	109948
#	122508
#	139179
#	161675
#	174671
#	194412
#	214813
#	227949
#	243956
#	265449
#	282236
#	302851
#
# Disc length: 4258 seconds
#
# Revision: 1
# Processed by: cddbd v1.5.2PL0 Copyright (c) Steve Scherf et al.
# Submitted via: audiograbber 1.81.03
#
DISCID=0c10a012
DTITLE=Various Artist - Cross Country
DYEAR=2006
DGENRE=Country
TTITLE0=KT Tunstall - Black Horse And The Cherry Tree
TTITLE1=Sarah McLachlan - Building A Mystery
TTITLE2=Sheryl Crow - Run, Baby, Run
TTITLE3=Lonestar - Walking In Memphis
TTITLE4=Shawn Colvin - Sunny Came Home
TTITLE5=Faith Hill - Breathe
TTITLE6=Johnny Cash and June Carter - Jackson
TTITLE7=Gretchen Wilson - Redneck Woman
TTITLE8=Tim McGraw - Back When
TTITLE9=Brooks and Dunn - Whiskey Under The Bridge
TTITLE10=The Mavericks - Dance The Night Away
TTITLE11=Steve Earle - Copperhead Road
TTITLE12=Martina McBride - I Love You
TTITLE13=Leann Rimes - Life Goes On
TTITLE14=Lucinda Williams - Car Wheels On A Gravel Road
TTITLE15=Mary Chaplin Carpenter - Shut Up And Kiss Me
TTITLE16=Mark Knopfler and Emmylou Harris - This Is Us
TTITLE17=Wilson Phillips - Go Your Own Way
EXTD=
EXTT0=
EXTT1=
EXTT2=
EXTT3=
EXTT4=
EXTT5=
EXTT6=
EXTT7=
EXTT8=
EXTT9=
EXTT10=
EXTT11=
EXTT12=
EXTT13=
EXTT14=
EXTT15=
EXTT16=
EXTT17=
PLAYORDER=
